<?xml version="1.0" encoding="UTF-8"?>
<svg id="Layer_1" data-name="Layer 1" xmlns="http://www.w3.org/2000/svg" viewBox="0 0 129.91 138.08">
  <defs>
    <style>
      .cls-1 {
        stroke: #a5ff00;
      }

      .cls-1, .cls-2, .cls-3, .cls-4, .cls-5, .cls-6, .cls-7, .cls-8, .cls-9 {
        fill: none;
      }

      .cls-1, .cls-2, .cls-3, .cls-4, .cls-6, .cls-10, .cls-7, .cls-8, .cls-9 {
        stroke-miterlimit: 10;
      }

      .cls-11 {
        fill: #ff017e;
      }

      .cls-2 {
        stroke: #f0f;
      }

      .cls-3 {
        stroke: aqua;
      }

      .cls-4 {
        stroke: blue;
      }

      .cls-6 {
        stroke: #1aff7f;
      }

      .cls-12 {
        fill: #3c8df9;
      }

      .cls-10 {
        fill: #ff0;
        stroke: #f0b400;
      }

      .cls-7 {
        stroke: #7d0183;
      }

      .cls-8 {
        stroke: orange;
      }

      .cls-9 {
        stroke: #070;
      }

      .cls-13 {
        fill: #00fb00;
      }
    </style>
  </defs>
  <path class="cls-6" d="M98.65,66.11H29.73s68.92,0,68.92,0Z"/>
  <line class="cls-1" x1="17.51" y1="15.4" x2="17.81" y2="72.4"/>
  <line class="cls-8" x1="17.64" y1="61.36" x2="17.93" y2="118.35"/>
  <line class="cls-3" x1="18.52" y1="15.88" x2="102.23" y2="57.2"/>
  <line class="cls-2" x1="17.93" y1="121.06" x2="102.23" y2="75.97"/>
  <circle class="cls-5" cx="60.08" cy="69.08" r="60.08"/>
  <circle class="cls-7" cx="17.93" cy="122.2" r="15.38"/>
  <circle class="cls-9" cx="17.93" cy="15.88" r="15.38"/>
  <circle class="cls-4" cx="114.03" cy="66.11" r="15.38"/>
  <path class="cls-10" d="M7.74,60.19h0c-4.54,7.88,1.12,17.71,10.2,17.71h0c9.12,0,14.78-9.92,10.16-17.79h0c-4.58-7.79-15.83-7.74-20.34.07Z"/>
  <path class="cls-13" d="M28.05,21.92h0c4.64-7.82-.9-17.73-9.98-17.84h0c-9.12-.11-14.91,9.74-10.38,17.66h0c4.48,7.84,15.73,7.94,20.34.18Z"/>
  <path class="cls-11" d="M23.85,112.01h-.01c-7.86-4.55-17.7,1.12-17.7,10.19h0c0,9.12,9.92,14.78,17.79,10.16h0c7.78-4.58,7.74-15.83-.08-20.35Z"/>
  <path class="cls-12" d="M125.83,66.02v-.02c-.08-9.07-9.96-14.65-17.79-10.05h0c-7.87,4.63-7.71,16.04.27,20.46h0c7.9,4.37,17.59-1.38,17.51-10.39Z"/>
</svg>