<?xml version="1.0" encoding="UTF-8"?>
<svg id="Layer_1" data-name="Layer 1" xmlns="http://www.w3.org/2000/svg" viewBox="0 0 134.95 134.19">
  <defs>
    <style>
      .cls-1 {
        fill: #3c8df9;
        stroke: blue;
      }

      .cls-1, .cls-2, .cls-3, .cls-4 {
        stroke-miterlimit: 10;
      }

      .cls-2 {
        fill: #ff0;
        stroke: #f0b400;
      }

      .cls-3 {
        fill: #ff017e;
        stroke: #7d0183;
      }

      .cls-4 {
        fill: #00fb00;
        stroke: #070;
      }
    </style>
  </defs>
  <path class="cls-2" d="M60.46,5.49L6.61,98.58c-3.85,6.66.95,15,8.65,15h108.6c7.75,0,12.56-8.42,8.63-15.1L77.71,5.42c-3.88-6.59-13.42-6.55-17.25.07Z"/>
  <path class="cls-4" d="M77.48,128.81l55-92.42c3.94-6.62-.77-15.01-8.47-15.11l-108.59-1.35c-7.75-.1-12.67,8.26-8.82,14.99l53.63,93.74c3.8,6.64,13.34,6.72,17.25.15Z"/>
  <path class="cls-3" d="M129.46,55.7L36.37,1.86c-6.66-3.85-15,.95-15,8.65v108.6c0,7.75,8.42,12.56,15.1,8.63l93.06-54.8c6.59-3.88,6.55-13.42-.07-17.25Z"/>
  <path class="cls-1" d="M114.95,118.52l-.89-107.54c-.06-7.7-8.44-12.44-15.07-8.53L5.43,57.6c-6.68,3.94-6.55,13.64.23,17.39l94.46,52.34c6.69,3.71,14.89-1.17,14.82-8.82Z"/>
</svg>